<svg xmlns="http://www.w3.org/2000/svg" viewBox="0 0 95 90" width="300" height="300">
	<g>
		<g>
			<path d="M82.1,51.1c-1.2,0-2.1,1-2.1,2.1v9.3c0,4.7-3.9,8.6-8.6,8.6H30.9c-0.9,0-1.8,0.4-2.4,1l-9.4,9.5v-8c0-1.4-1.1-2.5-2.5-2.5    h-0.7c-4.7,0-8.6-3.9-8.6-8.6V24.3c0-4.7,3.9-8.6,8.6-8.6h55.5c0.9,0,1.9,0.2,2.8,0.5c1.1,0.4,2.3-0.2,2.7-1.3s-0.2-2.3-1.3-2.7    c-1.3-0.5-2.7-0.7-4.1-0.7H15.9c-7.1,0-12.8,5.8-12.8,12.8v38.2c0,6.7,5.2,12.2,11.8,12.8v10.7c0,1,0.6,1.9,1.5,2.2    c0.3,0.1,0.6,0.2,0.9,0.2c0.6,0,1.3-0.2,1.7-0.7l12.3-12.4h40.1c7.1,0,12.8-5.8,12.8-12.8v-9.3C84.2,52.1,83.3,51.1,82.1,51.1z     M94.5,20c-3.7-4.3-10.1-4.8-14.4-1.2L52,42.6c-0.1,0.1-0.2,0.2-0.3,0.3l-0.1,0.1c0,0.1-0.1,0.2-0.2,0.3l0,0.1    c-0.1,0.1-0.1,0.2-0.2,0.3l-4.9,14.7c-0.3,0.8-0.1,1.5,0.4,2.2c0.4,0.4,1,0.7,1.6,0.8c0.1,0,0.3,0,0.5,0l15.2-2.5    c0.1-0.1,0.2,0,0.3-0.1l0.1,0c0.1,0,0.3,0,0.3-0.1l0.1-0.1c0.1-0.1,0.2-0.1,0.3-0.2l27.9-23.8C97.6,30.8,98.1,24.4,94.5,20z     M52,56.2l2.5-7.3l5.2,6.1L52,56.2z M64.1,53.3l-7.3-8.8l21.4-18.2l7.4,8.7L64.1,53.3z M90.4,31L89,32.2l-7.5-8.7l1.4-1.2    c1.2-1,2.7-1.5,4.2-1.3c1.5,0.1,2.9,0.8,3.9,2l0,0C93,25.4,92.8,29,90.4,31z M60.3,27.7c0-1.2-1-2.1-2.1-2.1H18.5    c-1.2,0-2.1,1-2.1,2.1s1,2.1,2.1,2.1h39.7C59.4,29.9,60.3,28.9,60.3,27.7z M46.3,44.3c0-1.2-1-2.1-2.1-2.1H18.5    c-1.2,0-2.1,1-2.1,2.1s1,2.1,2.1,2.1h25.7C45.4,46.4,46.3,45.4,46.3,44.3z M18.5,58.7c-1.2,0-2.1,1-2.1,2.1s1,2.1,2.1,2.1h21.7    c1.2,0,2.1-1,2.1-2.1s-1-2.1-2.1-2.1H18.5z" fill="#ffffff" />
		</g>
	</g>
</svg>
