<?xml version="1.0" encoding="iso-8859-1"?>
<!-- Generator: Adobe Illustrator 18.1.1, SVG Export Plug-In . SVG Version: 6.00 Build 0) -->
<svg version="1.1" id="Capa_1" xmlns="http://www.w3.org/2000/svg" xmlns:xlink="http://www.w3.org/1999/xlink" x="0px" y="0px" viewBox="0 0 204.757 204.757" style="enable-background:new 0 0 204.757 204.757;" xml:space="preserve">
	<g>
		<g>
			<path style="fill:#FFFF;" d="M114.98,109.76l0.633,0.208l70.833,23.352l-2.04-22.726L114.98,63.847V13.646
			C114.98,6.123,108.033,0,99.494,0S84.008,6.12,84.008,13.646v52.462l-0.211,0.143l-63.485,44.36l-2.001,25.184l65.697-24.365
			v60.626l-0.211,0.161l-23.166,15.851v16.688l32.557-11.184l14.308,0.025l33.051,10.414v-15.035l-25.571-16.77V109.76H114.98z
			 M136.306,191.268v6.964l-0.623-0.204l-27.228-8.579l-15.618-0.118l-27.958,9.47v-8.496l0.211-0.147l23.434-16.03l-0.208-1.313
			c-0.054-0.336-0.072-0.673-0.072-1.016V105.34L23.06,129.515l0.061-0.759l1.256-15.808l0.19-0.132l63.682-44.503V13.646
			c0-5.182,5.046-9.405,11.248-9.405s11.248,4.223,11.248,9.405v52.452l69.616,46.887l0.018,0.225l1.267,14.061l-70.904-23.377
			v67.905c0,0.437-0.047,0.841-0.097,1.185l-0.19,1.335L136.306,191.268z" />
		</g>
	</g>
	<g>
	</g>
	<g>
	</g>
	<g>
	</g>
	<g>
	</g>
	<g>
	</g>
	<g>
	</g>
	<g>
	</g>
	<g>
	</g>
	<g>
	</g>
	<g>
	</g>
	<g>
	</g>
	<g>
	</g>
	<g>
	</g>
	<g>
	</g>
	<g>
	</g>
</svg>
